<?xml version="1.0" encoding="utf-8"?>
<!-- Generator: Adobe Illustrator 26.5.1, SVG Export Plug-In . SVG Version: 6.00 Build 0)  -->
<svg version="1.1" id="Layer_1" xmlns="http://www.w3.org/2000/svg" xmlns:xlink="http://www.w3.org/1999/xlink" x="0px" y="0px"
	 viewBox="0 0 14400 14400" style="enable-background:new 0 0 14400 14400;" xml:space="preserve">
<style type="text/css">
	.st0{fill:#FFF100;}
	.st1{fill:#391F1F;}
</style>
<g>
	<circle class="st0" cx="7199.5" cy="7199.5" r="10.5"/>
	<g>
		<g>
			<g>
				<path class="st1" d="M7199.5,7194c-3.8,0-6.9,2.4-6.9,5.4c0,1.9,1.3,3.6,3.2,4.6l-0.6,2.4c0,0.1,0,0.2,0,0.2
					c0,0,0.1,0.1,0.1,0.1c0,0,0.1,0,0.1,0l2.8-1.9c0.4,0.1,0.8,0.1,1.2,0.1c3.8,0,6.9-2.4,6.9-5.4
					C7206.4,7196.4,7203.3,7194,7199.5,7194z"/>
			</g>
		</g>
		<g>
			<path class="st0" d="M7195,7198.5h-0.8c-0.1,0-0.2,0-0.3-0.1c-0.1,0-0.1-0.1-0.1-0.2c0,0,0,0,0-0.1c0-0.1,0-0.2,0.1-0.3
				c0.1-0.1,0.2-0.1,0.3-0.1h2.3c0.1,0,0.2,0,0.3,0.1c0.1,0,0.1,0.1,0.1,0.2c0,0,0,0,0,0.1c0,0.1,0,0.2-0.1,0.3
				c-0.1,0.1-0.2,0.1-0.3,0.1h-0.7l0,2.6c0,0.1,0,0.2-0.1,0.3c-0.1,0.1-0.2,0.1-0.3,0.1c-0.1,0-0.2,0-0.3-0.1
				c-0.1-0.1-0.1-0.1-0.1-0.2c0,0,0-0.1,0-0.1L7195,7198.5z"/>
			<path class="st0" d="M7197.2,7198c0-0.1,0.1-0.2,0.1-0.2c0.1,0,0.1-0.1,0.2-0.1h0.2c0.1,0,0.2,0,0.3,0.1c0.1,0,0.1,0.1,0.2,0.2
				l1,2.8c0,0.1,0.1,0.2,0.1,0.2c0,0,0,0.1,0,0.1c0,0.1,0,0.2-0.1,0.3c-0.1,0.1-0.2,0.1-0.3,0.1c-0.2,0-0.3-0.1-0.4-0.2l-0.2-0.6
				h-1.3l-0.2,0.6c-0.1,0.1-0.2,0.2-0.4,0.2c-0.1,0-0.2,0-0.2-0.1c-0.1,0-0.1-0.1-0.1-0.2c0,0,0-0.1,0-0.1c0,0,0-0.1,0-0.1
				c0-0.1,0-0.1,0.1-0.2L7197.2,7198z M7197.7,7198.7L7197.7,7198.7l-0.5,1.5h0.9L7197.7,7198.7z"/>
			<path class="st0" d="M7199.3,7198.2c0-0.1,0-0.2,0.1-0.3c0.1-0.1,0.2-0.1,0.3-0.1c0.1,0,0.2,0,0.3,0.1c0.1,0.1,0.1,0.1,0.1,0.2
				c0,0,0,0.1,0,0.1l0,2.6h1.3c0.1,0,0.2,0,0.3,0.1c0.1,0,0.1,0.1,0.1,0.2c0,0,0,0,0,0.1c0,0.1,0,0.2-0.1,0.3
				c-0.1,0.1-0.2,0.1-0.3,0.1h-1.7c-0.1,0-0.2,0-0.3-0.1c-0.1,0-0.1-0.1-0.1-0.2c0,0,0-0.1,0-0.2L7199.3,7198.2z"/>
			<path class="st0" d="M7201.9,7198.2c0-0.1,0-0.2,0.1-0.3c0.1-0.1,0.2-0.1,0.3-0.1c0.1,0,0.2,0,0.3,0.1c0.1,0.1,0.1,0.1,0.1,0.2
				c0,0,0,0.1,0,0.1l0,1.2l1.2-1.4c0.1-0.1,0.1-0.1,0.2-0.1c0,0,0.1,0,0.2,0c0.1,0,0.2,0,0.2,0.1c0.1,0,0.1,0.1,0.1,0.2c0,0,0,0,0,0
				c0,0,0,0,0,0c0,0.1,0,0.1,0,0.1c0,0-0.1,0.1-0.1,0.1l-0.8,0.9l1,1.5l0,0c0.1,0.1,0.1,0.2,0.1,0.2c0,0,0,0,0,0c0,0,0,0,0,0
				c0,0.1,0,0.2-0.1,0.3c-0.1,0.1-0.2,0.1-0.3,0.1c-0.1,0-0.1,0-0.2,0c-0.1,0-0.1-0.1-0.2-0.2l-0.9-1.5l-0.4,0.5l0,0.8
				c0,0.1,0,0.2-0.1,0.3c-0.1,0.1-0.2,0.1-0.3,0.1c-0.1,0-0.2,0-0.3-0.1c-0.1-0.1-0.1-0.1-0.1-0.2c0,0,0-0.1,0-0.1L7201.9,7198.2z"
				/>
		</g>
	</g>
</g>
</svg>
