<?xml version="1.0" encoding="utf-8"?>
<!-- Generator: Adobe Illustrator 26.5.1, SVG Export Plug-In . SVG Version: 6.00 Build 0)  -->
<svg version="1.1" xmlns="http://www.w3.org/2000/svg" xmlns:xlink="http://www.w3.org/1999/xlink" x="0px" y="0px"
	 viewBox="0 0 90 73" style="enable-background:new 0 0 90 73;" xml:space="preserve">
<style type="text/css">
	.st0{fill:#25483A;}
	.st1{fill:#F4F2ED;}
</style>
<g id="Layer_1">
</g>
<g id="Layer_2">
	<ellipse class="st0" cx="45" cy="36.5" rx="34" ry="34.5"/>
	<g>
		<path class="st1" d="M32,31.1c0.6,3.2,0.1,5.7-3.1,6.5c-2.8,0.7-4.7-1.7-5.3-4.9s-0.1-5.8,3.1-6.5C29.6,25.5,31.4,27.9,32,31.1z"
			/>
		<path class="st1" d="M66.1,33.4c-1,3-2.7,4.8-5.7,4c-2.7-0.7-3.1-3.7-2.1-6.7c1-3,2.7-4.9,5.7-4C66.8,27.6,67.1,30.5,66.1,33.4z"
			/>
		<path class="st1" d="M42.7,20.9c0.4,4-0.6,7.2-4.7,7.9c-3.7,0.6-5.8-2.7-6.2-6.8c-0.4-4,0.5-7.3,4.7-7.9
			C40.3,13.7,42.3,16.9,42.7,20.9z"/>
		<path class="st1" d="M58.1,21.9c-0.2,4.1-1.8,7-6,7c-3.8,0-5.3-3.6-5.1-7.7s1.7-7.1,6-7C56.9,14.3,58.4,17.8,58.1,21.9z"/>
		<path class="st1" d="M57.7,40.6l-5.4-4.9l-3.5-3.2c-2.1-2-5.4-2-7.5,0l-3.5,3.2l-5.4,4.9c-1.2,1.1-1.8,2.6-1.8,4.2v8.4
			c0,3.1,2.5,5.7,5.6,5.7h0c0.9,0,1.7-0.6,2-1.4l2.6-6.9l0.5-1.4c1.3-3.5,6.2-3.5,7.6,0l0.5,1.4l2.6,6.9c0.3,0.8,1.1,1.4,2,1.4h0
			c3.1,0,5.6-2.5,5.6-5.7v-8.4C59.6,43.2,58.9,41.7,57.7,40.6z"/>
	</g>
	<g>
		<path class="st1" d="M31.8,42.3c-0.2-0.2-0.4-0.2-0.4,0l-7.6,11.1c-0.1,0.1-0.2,0.2-0.2,0.3c0,0.1,0.1,0.1,0.2,0.1h1.1l0.9-1.3h0
			l6.7-9.8C32.5,42.5,32,42.3,31.8,42.3z"/>
		<path class="st1" d="M66.5,53.2l-7.6-10.7c0-0.2-0.2-0.2-0.4,0c-0.2,0-0.7,0.2-0.7,0.4l6.8,9.7h0l0.7,1.1h0c0.2,0,0.4,0,0.4,0h0.7
			h0C66.7,53.6,66.7,53.4,66.5,53.2z"/>
	</g>
</g>
</svg>
