<?xml version="1.0" encoding="utf-8"?>
<!-- Generator: Adobe Illustrator 26.5.1, SVG Export Plug-In . SVG Version: 6.00 Build 0)  -->
<svg version="1.1" id="Layer_1" xmlns="http://www.w3.org/2000/svg" xmlns:xlink="http://www.w3.org/1999/xlink" x="0px" y="0px"
	 viewBox="0 0 160.8 26.7" style="enable-background:new 0 0 160.8 26.7;" xml:space="preserve">
<style type="text/css">
	.st0{fill:#25483A;}
	.st1{fill:#F7612F;}
	.st2{fill:#FFFFFF;}
</style>
<g id="Layer_2_00000181805072283775700990000008327317313744944295_">
	<rect x="120.3" y="11.3" class="st0" width="33.6" height="12.5"/>
</g>
<g>
	<path class="st0" d="M43.9,21.6c0,1.3-0.8,2.1-1.9,2.1s-1.9-0.8-1.9-2.1V9.4c0-1.1,0.7-1.9,1.9-1.9h4c3.6,0,5.9,2.1,5.9,5.4
		s-2.3,5.4-5.9,5.4h-2.2L43.9,21.6L43.9,21.6z M46,14.7c1.3,0,2.1-0.6,2.1-1.8s-0.8-1.8-2.1-1.8h-2.1v3.5C43.9,14.7,46,14.7,46,14.7
		z"/>
	<path class="st0" d="M58.2,20.4c1.4,0,1.5-0.9,2.7-0.9c1,0,1.6,0.7,1.6,1.6c0,1.6-2.1,2.6-4.3,2.6c-3.6,0-5.6-2.8-5.6-6.1
		s2-6.1,5.4-6.1c3.7,0,5.3,3.2,5.3,5.4c0,1.4-0.7,1.9-1.8,1.9h-5.1C56.5,19.8,57.1,20.4,58.2,20.4L58.2,20.4z M59.5,16.2
		c-0.2-1-0.7-1.6-1.5-1.6s-1.4,0.6-1.5,1.6H59.5L59.5,16.2z"/>
	<path class="st0" d="M69.8,18.8c0,1,0.5,1.4,1.2,1.4c1.2,0,2,0.7,2,1.7s-0.7,1.8-2.5,1.8c-2.7,0-4.3-1.7-4.3-4.6v-3.7h-0.5
		c-1.2,0-2-0.8-2-1.8s0.7-1.8,2-1.8h0.5v-1.7c0-1.2,0.8-2,1.8-2s1.8,0.8,1.8,2v1.7H71c1.2,0,1.9,0.8,1.9,1.8s-0.8,1.8-1.9,1.8h-1.2
		V18.8L69.8,18.8z"/>
	<path class="st1" d="M74.4,14c0-0.4,0.1-0.8,0.2-1.2l0.7-2.7c0.2-0.7,0.6-1.2,1.3-1.2c0.7,0,1.3,0.5,1.3,1.5c0,0.4-0.1,0.8-0.2,1.2
		L77,14.2c-0.2,0.7-0.6,1.2-1.3,1.2C74.9,15.5,74.4,14.9,74.4,14z"/>
	<path class="st0" d="M77.7,21.1c0-0.8,0.5-1.4,1.5-1.4c1.3,0,1.6,1,3.3,1c0.7,0,1.2-0.2,1.2-0.6c0-0.7-1.4-0.7-2.8-1.2
		c-1.5-0.5-2.9-1.3-2.9-3.6s1.5-3.8,4.4-3.8c2.1,0,4.2,0.8,4.2,2.5c0,0.9-0.6,1.4-1.5,1.4c-1.2,0-1.3-0.8-2.6-0.8
		c-0.6,0-1,0.2-1,0.6c0,0.6,1,0.7,2.2,1.1c1.6,0.5,3.6,1.2,3.6,3.8s-1.9,3.8-4.7,3.8C80,23.7,77.7,22.8,77.7,21.1L77.7,21.1z"/>
	<path class="st0" d="M98.3,17.7c-1.2,0-2-0.8-2-1.8s0.7-1.8,2-1.8h3.8c1.1,0,1.9,0.7,1.9,1.9v1.4c0,3.1-2.3,6.3-6.6,6.3
		c-4.7,0-7.5-3.8-7.5-8.2s2.8-8.2,7.5-8.2c1.9,0,3.6,0.6,4.8,1.7c0.4,0.4,0.8,1,0.8,1.8c0,1-0.7,1.8-1.8,1.8c-0.6,0-1.1-0.3-1.6-0.7
		c-0.5-0.5-1.3-1-2.4-1c-2.3,0-3.7,2.1-3.7,4.6S95,20,97.4,20c1.4,0,2.7-0.7,2.8-2.3H98.3L98.3,17.7z"/>
	<path class="st0" d="M105.2,17.6c0-3.3,2.1-6.1,5.7-6.1s5.7,2.8,5.7,6.1s-2.1,6.1-5.7,6.1S105.2,20.9,105.2,17.6z M112.9,17.6
		c0-1.4-0.7-2.6-2-2.6s-2,1.2-2,2.6s0.7,2.6,2,2.6C112.2,20.2,112.9,19,112.9,17.6z"/>
</g>
<path class="st1" d="M19.5,10.7c0.3,1.4,0,2.6-1.4,3c-1.3,0.3-2.1-0.8-2.4-2.2s-0.1-2.7,1.4-3C18.4,8.2,19.2,9.3,19.5,10.7z"/>
<path class="st1" d="M35.1,11.8c-0.5,1.4-1.2,2.2-2.6,1.8c-1.2-0.3-1.4-1.7-0.9-3.1c0.5-1.4,1.2-2.3,2.6-1.8
	C35.4,9.1,35.6,10.4,35.1,11.8z"/>
<path class="st1" d="M24.4,6.1c0.2,1.9-0.3,3.3-2.1,3.6c-1.7,0.3-2.7-1.3-2.9-3.1c-0.2-1.8,0.3-3.3,2.2-3.6
	C23.3,2.7,24.2,4.2,24.4,6.1z"/>
<path class="st1" d="M31.5,6.5c-0.1,1.9-0.8,3.2-2.7,3.2c-1.7,0-2.4-1.7-2.3-3.5s0.8-3.3,2.7-3.2C30.9,3,31.6,4.7,31.5,6.5z"/>
<path class="st1" d="M31.3,15.1l-2.5-2.3l-1.6-1.5c-1-0.9-2.5-0.9-3.4,0l-1.6,1.5l-2.5,2.3c-0.5,0.5-0.8,1.2-0.8,1.9v3.8
	c0,1.4,1.1,2.6,2.6,2.6l0,0c0.4,0,0.8-0.3,0.9-0.6l1.2-3.1l0,0c0.7-1.8,3.2-1.8,3.9,0l0,0l1.2,3.1c0.1,0.4,0.5,0.6,0.9,0.6l0,0
	c1.4,0,2.6-1.2,2.6-2.6V17C32.1,16.3,31.8,15.6,31.3,15.1L31.3,15.1z"/>
<path class="st1" d="M15.9,21.6c-0.1,0-0.1-0.1,0-0.2l3.4-5.8c0-0.1,0.1-0.1,0.2,0c0.1,0,0.3,0.1,0.3,0.2l-3.4,5.8"/>
<path class="st1" d="M34.8,21.5h0.3c0.1,0,0.1-0.1,0-0.2l-3.4-5.6c0-0.1-0.1-0.1-0.2,0c-0.1,0-0.3,0.1-0.3,0.2l3.4,5.6
	C34.7,21.5,34.8,21.5,34.8,21.5L34.8,21.5z"/>
<g>
	<path class="st0" d="M22.4,22.8l0.3-0.8h-3.5c0.4,0.9,1.3,1.4,2.3,1.4C21.9,23.4,22.3,23.2,22.4,22.8z"/>
	<path class="st0" d="M28.4,22l0.3,0.8c0.1,0.4,0.5,0.6,0.9,0.6c1,0,1.9-0.6,2.3-1.4H28.4z"/>
</g>
<path class="st0" d="M16.2,20.9l-0.3,0.5c-0.1,0.1-0.1,0.2,0,0.2h0.5l0.4-0.7H16.2z"/>
<path class="st0" d="M34.6,21.5c0.1,0,0.2,0,0.2,0h0.3c0.1,0,0.1-0.1,0-0.2l-0.4-0.6L34.3,21L34.6,21.5z"/>
<g>
	<path class="st2" d="M125.7,19.1c-0.4,1-1.5,1.9-2.6,2.3v-1c1.1-0.5,2.1-1.4,2.1-3.9V13h1.1v3.4c0,2.5,1,3.4,2.1,3.9v1
		C127.1,21,126.1,20.1,125.7,19.1z M130.5,12.9v3.7h1.4v0.9h-1.4V22h-1.1v-9.1H130.5z"/>
	<path class="st2" d="M132.9,15.2c0-0.8,0.3-1.4,0.8-1.8c0.4-0.3,0.9-0.5,1.6-0.5c0.6,0,1.2,0.2,1.6,0.5c0.4,0.3,0.7,0.8,0.8,1.4
		h1.6v-1.8h1.1v4.8h-1.1v-2h-1.6c-0.1,0.6-0.4,1.1-0.8,1.4c-0.4,0.3-0.9,0.5-1.6,0.5c-0.6,0-1.2-0.2-1.6-0.5
		C133.2,16.6,132.9,16,132.9,15.2z M139.3,19.2v-1.1h1.1v3.9h-6.8v-3.9h1.1v1.1H139.3z M134,15.2c0,0.5,0.2,0.9,0.4,1.1
		c0.2,0.2,0.5,0.3,0.9,0.3c0.3,0,0.7-0.1,0.9-0.3c0.3-0.2,0.4-0.6,0.4-1.1s-0.2-0.8-0.4-1.1c-0.2-0.2-0.5-0.3-0.9-0.3
		c-0.4,0-0.7,0.1-0.9,0.3C134.1,14.3,134,14.7,134,15.2z M139.3,20.2h-4.6v1h4.6V20.2z"/>
	<path class="st2" d="M142.5,14v-1h4.9v1h-1.9v2.4c0,2.4,1,3.4,2,3.9v1c-1.1-0.4-2.1-1.3-2.5-2.2c-0.4,1-1.4,1.8-2.5,2.2v-1
		c1-0.5,2-1.5,2-3.9V14H142.5z M149.7,12.9v3.7h1.4v0.9h-1.4V22h-1.1v-9.1H149.7z"/>
</g>
</svg>
