<?xml version="1.0" encoding="UTF-8"?><svg id="Layer_1" xmlns="http://www.w3.org/2000/svg" viewBox="0 0 150 40"><defs><style>.cls-1{fill:#f7612f;}.cls-2{fill:#25483a;}</style></defs><g><path class="cls-2" d="M46.42,30.6c0,1.65-1.06,2.67-2.42,2.67s-2.42-1.03-2.42-2.67V14.95c0-1.46,.96-2.42,2.42-2.42h5.22c4.66,0,7.64,2.7,7.64,6.9s-2.98,6.9-7.64,6.9h-2.8v4.29Zm2.76-8.82c1.68,0,2.76-.75,2.76-2.27s-1.09-2.27-2.76-2.27h-2.76v4.54h2.76Z"/><path class="cls-2" d="M64.88,29.05c1.8,0,1.99-1.12,3.42-1.12,1.34,0,2.08,.96,2.08,2.02,0,2.02-2.64,3.39-5.53,3.39-4.66,0-7.21-3.6-7.21-7.86s2.52-7.8,6.9-7.8c4.75,0,6.87,4.16,6.87,6.93,0,1.8-.87,2.42-2.33,2.42h-6.62c.22,1.3,.99,2.02,2.42,2.02Zm1.62-5.31c-.22-1.24-.9-2.02-1.96-2.02s-1.74,.78-1.96,2.02h3.91Z"/><path class="cls-2" d="M79.82,27c0,1.27,.65,1.8,1.55,1.8,1.58,0,2.52,.87,2.52,2.24s-.9,2.3-3.2,2.3c-3.51,0-5.53-2.24-5.53-5.93v-4.81h-.68c-1.55,0-2.52-.99-2.52-2.27s.96-2.27,2.52-2.27h.68v-2.21c0-1.58,1.03-2.58,2.33-2.58s2.33,.99,2.33,2.58v2.21h1.58c1.49,0,2.49,1.06,2.49,2.27s-.99,2.27-2.49,2.27h-1.58v4.41Z"/><path class="cls-1" d="M85.65,20.85c0-.55,.16-1.05,.27-1.53l.87-3.46c.25-.95,.82-1.58,1.69-1.58,.92,0,1.65,.68,1.65,1.88,0,.55-.16,1.05-.27,1.53l-.87,3.46c-.25,.95-.82,1.58-1.69,1.58-.92,0-1.65-.68-1.65-1.88Z"/><path class="cls-2" d="M89.96,30.01c0-1.06,.65-1.8,1.96-1.8,1.62,0,2.02,1.27,4.19,1.27,.9,0,1.58-.22,1.58-.75,0-.84-1.8-.96-3.63-1.55-1.89-.59-3.79-1.71-3.79-4.6s1.96-4.91,5.65-4.91c2.7,0,5.37,1.06,5.37,3.17,0,1.12-.78,1.74-1.93,1.74-1.52,0-1.71-1.06-3.39-1.06-.81,0-1.34,.28-1.34,.71,0,.75,1.27,.96,2.8,1.4,2.11,.59,4.63,1.58,4.63,4.85s-2.49,4.85-6.09,4.85c-3.01,0-6.03-1.12-6.03-3.32Z"/><path class="cls-2" d="M116.39,25.63c-1.55,0-2.52-.99-2.52-2.27s.96-2.27,2.52-2.27h4.91c1.46,0,2.42,.96,2.42,2.42v1.74c0,4.01-2.98,8.08-8.54,8.08-6.09,0-9.66-4.85-9.66-10.59s3.57-10.59,9.63-10.59c2.49,0,4.57,.81,6.18,2.21,.68,.59,1.18,1.37,1.18,2.36,0,1.3-.9,2.3-2.27,2.3-.81,0-1.46-.34-2.05-.9-.68-.68-1.68-1.24-3.04-1.24-2.95,0-4.72,2.64-4.72,5.87s1.71,5.87,4.85,5.87c1.86,0,3.45-.96,3.6-2.98h-2.49Z"/><path class="cls-2" d="M125.34,25.51c0-4.26,2.7-7.83,7.3-7.83s7.3,3.57,7.3,7.83-2.7,7.83-7.3,7.83-7.3-3.57-7.3-7.83Zm9.88,0c0-1.8-.96-3.29-2.58-3.29s-2.58,1.49-2.58,3.29,.96,3.29,2.58,3.29,2.58-1.49,2.58-3.29Z"/></g><g><path class="cls-1" d="M15.11,16.64c.36,1.86,.03,3.36-1.81,3.85-1.65,.44-2.75-1.02-3.1-2.88s-.07-3.41,1.81-3.85c1.69-.4,2.75,1.02,3.1,2.88Z"/><path class="cls-1" d="M35.18,18c-.58,1.74-1.57,2.84-3.34,2.35-1.59-.44-1.8-2.2-1.22-3.93s1.56-2.9,3.34-2.35c1.6,.49,1.8,2.2,1.22,3.93Z"/><path class="cls-1" d="M21.42,10.67c.24,2.38-.35,4.23-2.76,4.64-2.17,.37-3.4-1.59-3.64-3.97s.31-4.3,2.76-4.64c2.21-.31,3.4,1.59,3.64,3.97Z"/><path class="cls-1" d="M30.5,11.23c-.14,2.38-1.04,4.11-3.52,4.11-2.23,0-3.14-2.14-3-4.52s1.01-4.18,3.52-4.11c2.26,.06,3.14,2.14,3,4.52Z"/><path class="cls-1" d="M30.26,22.22l-3.16-2.9-2.04-1.87c-1.25-1.14-3.16-1.14-4.4,0l-2.04,1.87-3.16,2.9c-.69,.63-1.08,1.53-1.08,2.47v4.94c0,1.84,1.47,3.33,3.28,3.33h0c.52,0,.99-.33,1.17-.82l1.51-4.05h0c.87-2.33,4.17-2.33,5.05,0h0s1.51,4.05,1.51,4.05c.18,.49,.65,.82,1.17,.82h0c1.81,0,3.28-1.49,3.28-3.33v-4.94c0-.94-.39-1.84-1.08-2.47Z"/><path class="cls-1" d="M10.84,30.59s-.37,0-.39-.02c-.07-.04-.1-.14-.05-.21l4.33-7.16c.04-.07,.14-.1,.21-.05,.07,.04,.41,.14,.36,.21l-4.33,7.16s-.08,.08-.13,.08Z"/><path class="cls-2" d="M10.9,29.51l-.51,.85c-.04,.07-.02,.17,.05,.21,.03,.02,.36,.02,.39,.02,.05,0,.1-.03,.13-.08l.61-1.01h-.67Z"/><path class="cls-1" d="M34.78,30.52s.37,0,.39-.02c.07-.04,.1-.14,.05-.21l-4.33-7.16c-.04-.07-.14-.1-.21-.05-.07,.04-.41,.14-.36,.21l4.33,7.16s.08,.08,.13,.08Z"/><path class="cls-2" d="M34.71,29.44l.51,.85c.04,.07,.02,.17-.05,.21-.03,.02-.36,.02-.39,.02-.05,0-.1-.03-.13-.08l-.61-1.01h.67Z"/><g><path class="cls-2" d="M18.81,32.14l.39-1.04h-4.5c.54,1.1,1.65,1.86,2.94,1.86,.52,0,.99-.33,1.17-.82Z"/><path class="cls-2" d="M26.5,31.11l.39,1.04c.18,.49,.65,.82,1.17,.82,1.29,0,2.4-.76,2.94-1.86h-4.5Z"/></g></g></svg>